<svg width="1312" height="549" xmlns="http://www.w3.org/2000/svg"><g fill="none" fill-rule="evenodd"><path stroke="#F9C7C5" stroke-width="6" stroke-linecap="round" stroke-linejoin="round" d="M849.634 473.733l32.547-14.557-32.546-14.516"/><path d="M706.586 485.501c-11.868 2.444-22.355-7.527-23.886-18.983-2.468-18.533 3.167-36.535-9.106-53.003-3.672-4.927-13.321-13.431-20.191-13.431 6.87 0 16.52-8.5 20.191-13.427 12.273-16.468 6.639-34.468 9.106-53.001 1.53-11.459 12.018-21.431 23.886-18.985" stroke="#E3EBF1" stroke-width="6" stroke-linecap="round"/><path d="M670.955 485.501c-11.868 2.444-22.355-7.527-23.886-18.983-2.469-18.533 3.167-36.535-9.107-53.003-3.671-4.927-13.32-13.431-20.19-13.431 6.87 0 16.52-8.5 20.19-13.427 12.274-16.468 6.639-34.468 9.107-53.001 1.53-11.459 12.018-21.431 23.886-18.985" stroke="#E3EBF1" stroke-width="6" stroke-linecap="round"/><path d="M592.719 198.624s4.302-4.355 2.37-9.565" stroke="#F9C7C5" stroke-linecap="round" stroke-width="6"/><path d="M517.137 302.339s4.302-4.354 2.369-9.565" stroke="#3F54A3" stroke-width="6" stroke-linecap="round"/><g stroke="#E3EBF1" stroke-linecap="round" stroke-linejoin="round" stroke-width="6"><path d="M991.489 145.067h39.568M1031.057 169.51h-39.568"/></g><path d="M959.732 75.15c0-39.51 32.029-71.539 71.541-71.539 39.511 0 71.54 32.029 71.54 71.539" stroke="#67BECE" stroke-width="6" stroke-linecap="round" stroke-linejoin="round"/><g stroke="#67BECE" stroke-linecap="round" stroke-width="6"><path d="M360.15 408.365s3.163 15.221-8.311 23.638M344.464 408.365s3.163 15.221-8.31 23.638"/></g><g stroke="#67BECE" stroke-linecap="round" stroke-width="6"><path d="M1133.291 431.049l34.6-82.258"/><path stroke-linejoin="round" d="M1131.841 401.034l-35.163-15.729 35.162-15.682"/></g><g stroke="#F9C7C5" stroke-linecap="round" stroke-width="4"><path d="M1167.92 243.218l14.142-14.142 14.143 14.143M1196.205 243.218l14.143-14.142 14.142 14.143M1224.49 243.218l14.143-14.142 14.142 14.143M1252.775 243.218l14.143-14.142 14.143 14.143M1281.061 243.218l14.142-14.142 14.143 14.143"/></g><path d="M3.449 545.154l50.174-119.281M32.086 545.154L82.26 425.873" stroke="#E3EBF1" stroke-width="6" stroke-linecap="round"/><g transform="translate(794 225)" fill="#F9C8C4" fill-rule="nonzero" stroke="#F9C8C4"><circle cx="4" cy="4" r="4"/><circle cx="28" cy="4" r="4"/><circle cx="4" cy="16" r="4"/><circle cx="28" cy="16" r="4"/><circle cx="4" cy="28" r="4"/><circle cx="28" cy="28" r="4"/><circle cx="16" cy="40" r="4"/><circle cx="28" cy="40" r="4"/><circle cx="16" cy="52" r="4"/><circle cx="16" cy="4" r="4"/><circle cx="16" cy="16" r="4"/><circle cx="16" cy="28" r="4"/><circle cx="4" cy="40" r="4"/><circle cx="4" cy="52" r="4"/><circle cx="28" cy="52" r="4"/><circle cx="4" cy="64" r="4"/><circle cx="16" cy="64" r="4"/><circle cx="28" cy="64" r="4"/></g></g></svg>