<svg width="232" height="554" viewBox="0 0 232 554" fill="none" xmlns="http://www.w3.org/2000/svg">
<circle cx="4.45271" cy="4.44453" r="4.12556" fill="#7854F7"/>
<circle cx="64.9605" cy="4.44441" r="4.12556" fill="#7854F7"/>
<circle cx="125.469" cy="4.44441" r="4.12556" fill="#7854F7"/>
<circle cx="185.977" cy="4.44441" r="4.12556" fill="#7854F7"/>
<circle cx="4.45271" cy="64.9527" r="4.12556" fill="#7854F7"/>
<circle cx="64.9605" cy="64.9527" r="4.12556" fill="#7854F7"/>
<circle cx="125.469" cy="64.9527" r="4.12556" fill="#7854F7"/>
<circle cx="185.977" cy="64.9527" r="4.12556" fill="#7854F7"/>
<circle cx="4.45271" cy="125.461" r="4.12556" fill="#7854F7"/>
<circle cx="64.9605" cy="125.461" r="4.12556" fill="#7854F7"/>
<circle cx="125.469" cy="125.461" r="4.12556" fill="#7854F7"/>
<circle cx="185.977" cy="125.461" r="4.12556" fill="#7854F7"/>
<circle cx="4.45271" cy="185.969" r="4.12556" fill="#7854F7"/>
<circle cx="64.9605" cy="185.969" r="4.12556" fill="#7854F7"/>
<circle cx="125.469" cy="185.969" r="4.12556" fill="#7854F7"/>
<circle cx="185.977" cy="185.969" r="4.12556" fill="#7854F7"/>
<circle cx="4.45271" cy="246.477" r="4.12556" fill="#7854F7"/>
<circle cx="64.9605" cy="246.477" r="4.12556" fill="#7854F7"/>
<circle cx="125.469" cy="246.477" r="4.12556" fill="#7854F7"/>
<circle cx="185.977" cy="246.477" r="4.12556" fill="#7854F7"/>
<circle cx="4.45271" cy="306.985" r="4.12556" fill="#7854F7"/>
<circle cx="64.9605" cy="306.985" r="4.12556" fill="#7854F7"/>
<circle cx="125.469" cy="306.985" r="4.12556" fill="#7854F7"/>
<circle cx="185.977" cy="306.985" r="4.12556" fill="#7854F7"/>
<circle cx="4.45271" cy="367.494" r="4.12556" fill="#7854F7"/>
<circle cx="64.9605" cy="367.494" r="4.12556" fill="#7854F7"/>
<circle cx="125.469" cy="367.494" r="4.12556" fill="#7854F7"/>
<circle cx="185.977" cy="367.494" r="4.12556" fill="#7854F7"/>
<circle cx="4.45271" cy="428.002" r="4.12556" fill="#7854F7"/>
<circle cx="64.9605" cy="428.002" r="4.12556" fill="#7854F7"/>
<circle cx="125.469" cy="428.002" r="4.12556" fill="#7854F7"/>
<circle cx="185.977" cy="428.002" r="4.12556" fill="#7854F7"/>
<circle cx="4.45271" cy="488.51" r="4.12556" fill="#7854F7"/>
<circle cx="64.9605" cy="488.51" r="4.12556" fill="#7854F7"/>
<circle cx="125.469" cy="488.51" r="4.12556" fill="#7854F7"/>
<circle cx="185.977" cy="488.51" r="4.12556" fill="#7854F7"/>
<circle cx="4.45271" cy="549.018" r="4.12556" fill="#7854F7"/>
<circle cx="64.9605" cy="549.018" r="4.12556" fill="#7854F7"/>
<circle cx="125.469" cy="549.018" r="4.12556" fill="#7854F7"/>
<circle cx="185.977" cy="549.018" r="4.12556" fill="#7854F7"/>
</svg>
