<svg width="553" height="251" viewBox="0 0 553 251" fill="none" xmlns="http://www.w3.org/2000/svg">
<circle cx="548.7" cy="4.21479" r="4.12556" transform="rotate(90 548.7 4.21479)" fill="#29AAF3"/>
<circle cx="548.7" cy="64.7226" r="4.12556" transform="rotate(90 548.7 64.7226)" fill="#29AAF3"/>
<circle cx="548.7" cy="125.231" r="4.12556" transform="rotate(90 548.7 125.231)" fill="#29AAF3"/>
<circle cx="548.7" cy="185.739" r="4.12556" transform="rotate(90 548.7 185.739)" fill="#29AAF3"/>
<circle cx="548.7" cy="246.247" r="4.12556" transform="rotate(90 548.7 246.247)" fill="#29AAF3"/>
<circle cx="488.192" cy="4.21443" r="4.12556" transform="rotate(90 488.192 4.21443)" fill="#29AAF3"/>
<circle cx="488.192" cy="64.7226" r="4.12556" transform="rotate(90 488.192 64.7226)" fill="#29AAF3"/>
<circle cx="488.192" cy="125.231" r="4.12556" transform="rotate(90 488.192 125.231)" fill="#29AAF3"/>
<circle cx="488.192" cy="185.739" r="4.12556" transform="rotate(90 488.192 185.739)" fill="#29AAF3"/>
<circle cx="488.192" cy="246.247" r="4.12556" transform="rotate(90 488.192 246.247)" fill="#29AAF3"/>
<circle cx="427.683" cy="4.21443" r="4.12556" transform="rotate(90 427.683 4.21443)" fill="#29AAF3"/>
<circle cx="427.683" cy="64.7226" r="4.12556" transform="rotate(90 427.683 64.7226)" fill="#29AAF3"/>
<circle cx="427.683" cy="125.231" r="4.12556" transform="rotate(90 427.683 125.231)" fill="#29AAF3"/>
<circle cx="427.683" cy="185.739" r="4.12556" transform="rotate(90 427.683 185.739)" fill="#29AAF3"/>
<circle cx="427.683" cy="246.247" r="4.12556" transform="rotate(90 427.683 246.247)" fill="#29AAF3"/>
<circle cx="367.175" cy="4.21443" r="4.12556" transform="rotate(90 367.175 4.21443)" fill="#29AAF3"/>
<circle cx="367.175" cy="64.7226" r="4.12556" transform="rotate(90 367.175 64.7226)" fill="#29AAF3"/>
<circle cx="367.175" cy="125.231" r="4.12556" transform="rotate(90 367.175 125.231)" fill="#29AAF3"/>
<circle cx="367.175" cy="185.739" r="4.12556" transform="rotate(90 367.175 185.739)" fill="#29AAF3"/>
<circle cx="367.175" cy="246.247" r="4.12556" transform="rotate(90 367.175 246.247)" fill="#29AAF3"/>
<circle cx="306.666" cy="4.21443" r="4.12556" transform="rotate(90 306.666 4.21443)" fill="#29AAF3"/>
<circle cx="306.667" cy="64.7226" r="4.12556" transform="rotate(90 306.667 64.7226)" fill="#29AAF3"/>
<circle cx="306.667" cy="125.231" r="4.12556" transform="rotate(90 306.667 125.231)" fill="#29AAF3"/>
<circle cx="306.667" cy="185.739" r="4.12556" transform="rotate(90 306.667 185.739)" fill="#29AAF3"/>
<circle cx="306.667" cy="246.247" r="4.12556" transform="rotate(90 306.667 246.247)" fill="#29AAF3"/>
<circle cx="246.159" cy="4.21443" r="4.12556" transform="rotate(90 246.159 4.21443)" fill="#29AAF3"/>
<circle cx="246.159" cy="64.7226" r="4.12556" transform="rotate(90 246.159 64.7226)" fill="#29AAF3"/>
<circle cx="246.159" cy="125.231" r="4.12556" transform="rotate(90 246.159 125.231)" fill="#29AAF3"/>
<circle cx="246.159" cy="185.739" r="4.12556" transform="rotate(90 246.159 185.739)" fill="#29AAF3"/>
<circle cx="246.159" cy="246.247" r="4.12556" transform="rotate(90 246.159 246.247)" fill="#29AAF3"/>
<circle cx="185.65" cy="4.21443" r="4.12556" transform="rotate(90 185.65 4.21443)" fill="#29AAF3"/>
<circle cx="185.65" cy="64.7226" r="4.12556" transform="rotate(90 185.65 64.7226)" fill="#29AAF3"/>
<circle cx="185.65" cy="125.231" r="4.12556" transform="rotate(90 185.65 125.231)" fill="#29AAF3"/>
<circle cx="185.65" cy="185.739" r="4.12556" transform="rotate(90 185.65 185.739)" fill="#29AAF3"/>
<circle cx="185.65" cy="246.247" r="4.12556" transform="rotate(90 185.65 246.247)" fill="#29AAF3"/>
<circle cx="125.142" cy="4.21443" r="4.12556" transform="rotate(90 125.142 4.21443)" fill="#29AAF3"/>
<circle cx="125.142" cy="64.7226" r="4.12556" transform="rotate(90 125.142 64.7226)" fill="#29AAF3"/>
<circle cx="125.142" cy="125.231" r="4.12556" transform="rotate(90 125.142 125.231)" fill="#29AAF3"/>
<circle cx="125.142" cy="185.739" r="4.12556" transform="rotate(90 125.142 185.739)" fill="#29AAF3"/>
<circle cx="125.142" cy="246.247" r="4.12556" transform="rotate(90 125.142 246.247)" fill="#29AAF3"/>
<circle cx="64.6337" cy="4.21443" r="4.12556" transform="rotate(90 64.6337 4.21443)" fill="#29AAF3"/>
<circle cx="64.6337" cy="64.7226" r="4.12556" transform="rotate(90 64.6337 64.7226)" fill="#29AAF3"/>
<circle cx="64.6337" cy="125.231" r="4.12556" transform="rotate(90 64.6337 125.231)" fill="#29AAF3"/>
<circle cx="64.6337" cy="185.739" r="4.12556" transform="rotate(90 64.6337 185.739)" fill="#29AAF3"/>
<circle cx="64.6337" cy="246.247" r="4.12556" transform="rotate(90 64.6337 246.247)" fill="#29AAF3"/>
<circle cx="4.12542" cy="4.21443" r="4.12556" transform="rotate(90 4.12542 4.21443)" fill="#29AAF3"/>
<circle cx="4.12542" cy="64.7227" r="4.12556" transform="rotate(90 4.12542 64.7227)" fill="#29AAF3"/>
<circle cx="4.12542" cy="125.231" r="4.12556" transform="rotate(90 4.12542 125.231)" fill="#29AAF3"/>
<circle cx="4.12542" cy="185.739" r="4.12556" transform="rotate(90 4.12542 185.739)" fill="#29AAF3"/>
<circle cx="4.12542" cy="246.247" r="4.12556" transform="rotate(90 4.12542 246.247)" fill="#29AAF3"/>
</svg>
